<?xml version="1.0" standalone="no"?>
<!DOCTYPE svg PUBLIC "-//W3C//DTD SVG 20010904//EN"
 "http://www.w3.org/TR/2001/REC-SVG-20010904/DTD/svg10.dtd">
<svg version="1.0" xmlns="http://www.w3.org/2000/svg"
 width="1181.000000pt" height="1181.000000pt" viewBox="0 0 1181.000000 1181.000000"
 preserveAspectRatio="xMidYMid meet">
<metadata>
Created by potrace 1.11, written by Peter Selinger 2001-2013
</metadata>
<g transform="translate(0.000000,1181.000000) scale(0.100000,-0.100000)"
fill="#000000" stroke="none">
<path d="M6245 11307 c-35 -20 -100 -89 -183 -196 -25 -31 -110 -131 -232
-271 -27 -30 -59 -69 -71 -85 -13 -17 -41 -51 -63 -76 -23 -25 -59 -67 -81
-94 -22 -27 -106 -126 -186 -220 -80 -93 -168 -197 -195 -231 -27 -33 -83
-100 -124 -149 -41 -49 -113 -134 -160 -189 -47 -56 -95 -112 -107 -126 -42
-48 -179 -209 -298 -351 -66 -78 -162 -193 -213 -253 -51 -61 -106 -127 -123
-146 -16 -19 -44 -53 -62 -74 -18 -22 -48 -58 -68 -80 -75 -85 -237 -277 -309
-366 -130 -161 -202 -240 -218 -240 -8 0 -46 26 -84 58 -38 31 -84 67 -101 80
-76 53 -105 74 -147 107 -25 19 -65 49 -89 66 -24 18 -52 39 -61 48 -9 9 -42
34 -74 56 -31 22 -87 62 -124 90 -76 56 -75 55 -119 90 -50 40 -154 112 -208
144 -71 42 -113 47 -168 23 -73 -32 -132 -99 -267 -302 -46 -69 -97 -143 -114
-164 -32 -40 -128 -177 -194 -276 -21 -30 -54 -77 -76 -105 -21 -27 -79 -108
-129 -179 -51 -70 -118 -165 -150 -210 -32 -44 -78 -110 -102 -146 -25 -36
-67 -96 -95 -135 -72 -99 -89 -124 -141 -201 -25 -38 -53 -75 -62 -83 -9 -7
-17 -17 -17 -22 0 -4 -21 -38 -47 -75 -27 -36 -69 -96 -95 -133 -27 -36 -68
-95 -93 -131 -25 -36 -58 -82 -73 -102 -15 -20 -54 -75 -87 -122 -33 -47 -76
-108 -95 -135 -19 -26 -53 -75 -75 -107 -22 -32 -72 -102 -111 -154 -39 -52
-107 -149 -151 -215 -44 -66 -90 -128 -102 -139 -45 -41 -39 -155 12 -213 31
-35 120 -83 155 -83 9 0 40 11 69 24 51 24 369 329 1108 1061 552 547 1217
1202 1255 1238 22 20 44 37 48 37 13 0 497 -565 572 -666 31 -42 79 -74 147
-97 l52 -17 67 31 c39 19 82 49 103 72 20 22 196 202 391 401 196 199 479 487
630 641 151 154 311 316 355 360 45 44 133 134 196 200 170 178 338 337 350
333 14 -5 13 -386 -1 -468 -5 -30 -11 -139 -14 -241 -3 -163 -1 -192 14 -225
40 -89 133 -124 244 -93 43 12 91 45 302 209 74 58 152 117 172 132 l37 27
562 1 c309 0 569 -3 578 -6 9 -4 32 -39 50 -78 19 -39 39 -78 44 -86 5 -8 19
-35 31 -60 43 -88 74 -115 193 -173 190 -93 435 -211 602 -291 208 -100 450
-222 499 -254 22 -13 128 -102 235 -196 108 -94 225 -195 261 -225 36 -30 90
-77 120 -105 31 -28 100 -89 154 -136 55 -47 160 -139 233 -205 74 -66 152
-133 173 -150 53 -41 322 -278 584 -514 71 -64 141 -125 157 -136 15 -11 104
-86 197 -168 210 -182 247 -200 330 -159 93 46 122 86 122 172 0 54 -22 120
-40 120 -5 0 -18 13 -28 30 -10 16 -72 88 -138 158 -65 71 -151 165 -190 208
-222 246 -323 358 -391 434 -42 47 -111 121 -153 166 -43 44 -99 105 -125 135
-26 30 -73 83 -104 118 -31 35 -78 87 -106 116 -27 28 -99 107 -160 175 -60
68 -115 128 -120 134 -66 71 -168 183 -300 331 -88 98 -181 199 -206 224 -25
25 -83 89 -130 141 -46 52 -135 151 -198 220 -63 69 -151 166 -196 215 -207
226 -273 300 -319 353 -27 31 -103 116 -170 187 -67 72 -180 195 -251 275 -71
80 -132 147 -135 150 -3 3 -79 86 -169 185 -198 218 -282 311 -381 418 -42 45
-93 102 -114 127 -38 44 -176 195 -306 335 -73 78 -130 141 -240 264 -41 47
-89 99 -107 116 -17 18 -54 59 -82 91 -85 100 -144 161 -190 193 -56 40 -134
43 -196 8z m860 -1393 c28 -9 59 -23 70 -29 11 -7 33 -16 49 -19 48 -12 215
-160 216 -192 0 -6 11 -21 25 -34 14 -13 25 -30 25 -38 0 -7 9 -25 20 -39 11
-14 20 -38 20 -54 0 -16 10 -47 21 -69 20 -39 21 -53 17 -193 -2 -84 -3 -160
-1 -169 3 -10 18 -20 38 -24 20 -3 41 -16 50 -31 15 -23 15 -26 0 -43 -15 -17
-53 -18 -713 -19 -383 0 -715 3 -736 7 -46 8 -66 33 -50 60 8 12 30 19 74 23
35 3 66 12 70 19 5 8 7 81 4 164 -3 130 -1 159 15 206 11 30 23 73 27 95 4 22
13 45 20 50 6 6 23 30 35 55 25 46 116 150 132 150 6 0 29 18 53 40 24 22 52
40 62 40 9 0 27 7 40 15 25 18 158 53 217 57 57 4 142 -8 200 -28z"/>
<path d="M6540 9700 c0 -5 5 -10 10 -10 6 0 10 5 10 10 0 6 -4 10 -10 10 -5 0
-10 -4 -10 -10z"/>
<path d="M6798 9653 c-29 -3 -37 -9 -42 -29 -5 -20 -11 -24 -24 -18 -40 17
-70 16 -88 -4 -11 -11 -28 -22 -39 -26 -11 -3 -27 -19 -37 -35 -11 -20 -26
-31 -44 -33 -16 -2 -33 -12 -39 -23 -5 -12 -16 -27 -23 -35 -18 -21 -62 -90
-62 -97 0 -3 -9 -24 -19 -47 -11 -23 -27 -73 -36 -113 -15 -66 -15 -75 0 -102
l16 -31 92 0 c54 0 98 5 104 11 8 8 17 8 31 0 11 -6 48 -11 81 -11 51 0 61 3
66 20 3 11 10 20 15 20 4 0 10 -9 13 -20 4 -18 14 -20 75 -20 63 0 70 2 75 22
l6 21 18 -22 c16 -20 26 -22 88 -19 61 3 70 6 73 23 7 36 21 40 28 7 6 -32 7
-32 69 -32 60 0 64 1 73 28 l9 27 13 -27 c16 -33 63 -43 157 -33 57 6 65 10
75 33 21 54 -34 241 -92 314 -17 20 -30 44 -30 52 0 9 -18 28 -41 43 -34 22
-44 25 -60 15 -16 -11 -19 -9 -19 8 0 24 -64 88 -97 96 -11 3 -31 1 -42 -6
-20 -10 -21 -18 -21 -233 0 -122 -4 -217 -8 -210 -4 6 -6 110 -6 232 2 158 -1
225 -10 236 -10 14 -35 18 -137 20 -68 2 -140 1 -161 -2z m-38 -112 c0 -6 -4
-13 -10 -16 -5 -3 -10 1 -10 9 0 9 5 16 10 16 6 0 10 -4 10 -9z m167 -93 c-3
-8 -6 -5 -6 6 -1 11 2 17 5 13 3 -3 4 -12 1 -19z m-167 -42 c0 -14 -4 -28 -10
-31 -6 -4 -10 7 -10 24 0 17 5 31 10 31 6 0 10 -11 10 -24z m529 -33 c1 -7 -3
-13 -9 -13 -5 0 -10 15 -9 33 0 27 2 29 9 12 5 -11 9 -26 9 -32z m-542 -125
c-3 -8 -6 -5 -6 6 -1 11 2 17 5 13 3 -3 4 -12 1 -19z m535 -70 c-9 -20 -11
-18 -11 22 0 40 2 42 11 23 8 -17 8 -29 0 -45z"/>
<path d="M3755 6490 c-80 -16 -159 -53 -240 -115 -33 -24 -663 -655 -1197
-1198 -112 -114 -164 -190 -201 -291 -20 -57 -21 -79 -22 -336 0 -299 -2 -285
62 -415 50 -102 -43 -5 1234 -1289 1296 -1304 1549 -1560 1549 -1568 0 -4 8
-10 18 -13 9 -4 39 -31 65 -62 107 -121 220 -193 345 -218 73 -14 141 -16 530
-12 280 3 465 9 496 16 27 6 84 28 125 48 73 35 99 60 641 604 311 312 811
817 1112 1121 301 304 703 710 895 902 194 194 365 373 385 405 21 31 50 86
65 121 l28 65 0 300 c0 259 -2 305 -17 335 -9 19 -25 55 -36 80 -34 82 -32 79
-1080 1134 -136 137 -272 267 -302 289 -30 23 -88 55 -130 71 l-75 31 -375 0
c-364 0 -377 -1 -434 -22 -127 -48 -158 -74 -586 -505 -378 -379 -421 -419
-485 -451 -160 -79 -337 -78 -500 2 -72 36 -98 58 -267 228 -103 103 -292 292
-420 419 -342 338 -333 335 -822 333 -177 -1 -339 -5 -361 -9z m460 -679 c25
-12 109 -89 226 -207 156 -158 187 -195 193 -226 8 -45 -12 -98 -51 -137 -16
-15 -97 -98 -182 -184 -84 -86 -169 -163 -188 -172 -24 -12 -46 -15 -74 -10
-35 6 -63 30 -230 197 -226 225 -242 253 -200 336 26 50 338 366 392 397 52
30 62 30 114 6z m3422 -1 c37 -22 26 -12 213 -195 180 -176 200 -203 200 -266
0 -45 -5 -54 -59 -116 -32 -38 -124 -132 -203 -210 l-145 -143 -58 0 -59 0
-183 183 c-174 173 -233 245 -233 289 0 43 47 102 214 268 218 216 244 232
313 190z m-4240 -879 c83 -66 369 -364 383 -399 26 -67 6 -99 -184 -287 -95
-94 -193 -186 -219 -205 -46 -32 -48 -33 -88 -20 -48 16 -65 31 -272 237 -238
238 -239 225 38 504 105 105 199 195 210 199 45 19 82 11 132 -29z m1671 20
c54 -28 393 -372 415 -422 30 -67 17 -87 -191 -298 -103 -104 -202 -196 -220
-206 -47 -23 -84 -22 -121 4 -66 47 -387 381 -400 416 -25 70 -7 99 181 291
169 172 243 234 280 234 10 0 36 -9 56 -19z m1709 4 c25 -10 100 -78 225 -204
159 -161 189 -196 199 -233 10 -38 9 -48 -9 -83 -23 -45 -342 -373 -393 -404
-20 -12 -51 -21 -76 -21 -50 0 -60 8 -280 226 -200 198 -219 234 -169 318 29
49 361 379 402 401 36 19 54 19 101 0z m1729 -14 c45 -32 317 -306 363 -365
31 -39 35 -51 31 -96 -4 -45 -26 -73 -207 -255 -198 -200 -237 -228 -295 -205
-40 16 -369 337 -409 399 -34 53 -36 78 -10 130 24 46 369 391 408 408 45 19
77 15 119 -16z m-866 -831 c37 -19 130 -108 310 -296 112 -116 120 -129 120
-185 0 -35 -7 -55 -29 -85 -49 -67 -362 -374 -402 -395 -83 -42 -116 -23 -313
179 -224 228 -236 244 -236 298 0 60 22 89 230 301 208 211 234 227 320 183z
m-3409 -23 c19 -13 127 -117 241 -233 114 -115 469 -472 788 -794 1003 -1009
1057 -1064 1073 -1096 23 -45 12 -99 -32 -154 -53 -67 -326 -337 -363 -360
-43 -26 -80 -25 -126 4 -20 13 -116 103 -212 201 -96 98 -447 452 -780 787
-1158 1166 -1108 1115 -1116 1154 -14 75 4 102 208 305 106 105 201 195 212
199 37 15 72 11 107 -13z m1688 3 c41 -21 371 -345 402 -395 29 -47 25 -104
-13 -156 -17 -24 -108 -119 -202 -211 -154 -150 -174 -167 -213 -173 -30 -4
-51 -1 -75 11 -18 9 -117 101 -220 205 -156 156 -188 193 -194 224 -13 70 6
101 142 235 69 69 150 150 180 180 46 48 122 99 147 100 4 0 25 -9 46 -20z
m859 -867 c54 -25 393 -368 416 -421 19 -43 19 -44 1 -80 -11 -20 -105 -123
-209 -229 -175 -179 -192 -193 -232 -199 -24 -3 -55 -3 -69 0 -24 6 -355 330
-396 388 -33 46 -40 85 -23 127 18 42 362 392 408 415 40 20 60 20 104 -1z"/>
</g>
</svg>
